<svg width="256" height="264" viewBox="0 0 256 264" fill="none" xmlns="http://www.w3.org/2000/svg">
<g clip-path="url(#clip0_604_4761)">
<path d="M255.856 59.6198C255.951 59.9708 256 60.3328 256 60.6968V117.265C256 118.743 255.21 120.108 253.927 120.843L206.45 148.18V202.36C206.45 203.085 206.259 203.797 205.897 204.425C205.535 205.053 205.015 205.575 204.388 205.939L105.28 262.992C105.053 263.12 104.806 263.202 104.558 263.291C104.465 263.321 104.378 263.378 104.28 263.404C103.587 263.586 102.859 263.586 102.166 263.404C102.052 263.374 101.949 263.311 101.841 263.27C101.614 263.187 101.377 263.115 101.161 262.992L2.073 205.938C1.44348 205.576 0.920389 205.055 0.556449 204.427C0.192509 203.799 0.000578768 203.086 0 202.36L0 32.6558C0 32.2838 0.052 31.9228 0.144 31.5728C0.175 31.4538 0.247 31.3458 0.289 31.2268C0.366 31.0108 0.439 30.7888 0.552 30.5878C0.629 30.4538 0.742 30.3458 0.835 30.2218C0.954 30.0568 1.062 29.8868 1.201 29.7418C1.32 29.6238 1.475 29.5358 1.609 29.4328C1.759 29.3088 1.892 29.1748 2.062 29.0768H2.067L51.613 0.550823C52.2406 0.190241 52.9517 0.000488281 53.6755 0.000488281C54.3993 0.000488281 55.1104 0.190241 55.738 0.550823L105.284 29.0768H105.294C105.459 29.1808 105.599 29.3088 105.748 29.4278C105.882 29.5308 106.032 29.6238 106.15 29.7378C106.295 29.8868 106.398 30.0578 106.521 30.2218C106.609 30.3458 106.728 30.4538 106.8 30.5878C106.918 30.7938 106.985 31.0108 107.068 31.2278C107.109 31.3458 107.181 31.4538 107.212 31.5778C107.307 31.9288 107.356 32.2918 107.357 32.6558V138.65L148.643 114.877V60.6918C148.643 60.3318 148.695 59.9648 148.788 59.6198C148.824 59.4958 148.891 59.3878 148.932 59.2698C149.015 59.0528 149.087 58.8298 149.2 58.6298C149.277 58.4958 149.39 58.3878 149.479 58.2638C149.602 58.0988 149.705 57.9288 149.849 57.7838C149.969 57.6658 150.118 57.5778 150.252 57.4748C150.407 57.3508 150.541 57.2168 150.706 57.1188H150.711L200.262 28.5928C200.889 28.2313 201.601 28.0409 202.324 28.0409C203.048 28.0409 203.76 28.2313 204.387 28.5928L253.933 57.1188C254.108 57.2218 254.242 57.3508 254.397 57.4688C254.525 57.5728 254.675 57.6658 254.794 57.7788C254.938 57.9288 255.041 58.0988 255.164 58.2638C255.258 58.3878 255.371 58.4958 255.444 58.6298C255.562 58.8298 255.629 59.0528 255.711 59.2698C255.758 59.3878 255.825 59.4958 255.856 59.6198ZM247.741 114.878V67.8378L230.402 77.8188L206.449 91.6108V138.651L247.746 114.878H247.741ZM198.195 199.973V152.9L174.633 166.357L107.352 204.757V252.271L198.195 199.973ZM8.259 39.7958V199.973L99.092 252.267V204.762L51.64 177.906L51.625 177.896L51.605 177.886C51.445 177.793 51.31 177.659 51.161 177.546C51.031 177.442 50.882 177.36 50.769 177.246L50.759 177.231C50.625 177.102 50.532 176.942 50.419 176.798C50.315 176.658 50.192 176.54 50.109 176.396L50.104 176.38C50.011 176.226 49.954 176.04 49.887 175.865C49.82 175.71 49.733 175.565 49.691 175.401V175.396C49.64 175.2 49.63 174.993 49.609 174.792C49.589 174.638 49.547 174.483 49.547 174.328V63.5698L25.598 49.7718L8.259 39.8018V39.7958ZM53.681 8.89282L12.399 32.6558L53.671 56.4178L94.947 32.6498L53.671 8.89282H53.681ZM75.149 157.191L99.097 143.405V39.7958L81.76 49.7778L57.805 63.5688V167.177L75.149 157.191ZM202.324 36.9348L161.048 60.6968L202.324 84.4598L243.595 60.6918L202.324 36.9348ZM198.194 91.6108L174.241 77.8188L156.903 67.8378V114.878L180.851 128.665L198.195 138.651L198.194 91.6108ZM103.217 197.617L163.76 163.053L194.024 145.781L152.778 122.034L105.289 149.374L62.007 174.292L103.217 197.617Z" fill="#FF2D20"/>
</g>
<defs>
<clipPath id="clip0_604_4761">
<rect width="256" height="264" fill="white"/>
</clipPath>
</defs>
</svg>
