<svg width="158" height="35" viewBox="0 0 158 35" fill="none" xmlns="http://www.w3.org/2000/svg">
<g clip-path="url(#clip0_514_3584)">
<path d="M32 0H3C1.34315 0 0 1.34315 0 3V32C0 33.6569 1.34315 35 3 35H32C33.6569 35 35 33.6569 35 32V3C35 1.34315 33.6569 0 32 0Z" fill="#1D1029"/>
<path d="M25.5584 19.0778L11.8834 5.40282C11.4869 5.00635 10.8441 5.00635 10.4474 5.40282L8.63871 7.21154C6.78482 9.06543 6.78482 12.0711 8.63871 13.925L22.9331 28.2193C23.1584 28.4449 23.5241 28.4449 23.7497 28.2193L25.5584 26.4104C27.5832 24.3856 27.5832 21.1028 25.5584 19.0778Z" fill="url(#paint0_linear_514_3584)"/>
<path d="M12.9548 26.8056V22.7315C12.9548 22.471 12.7435 22.2598 12.483 22.2598H8.20541C6.98751 22.2598 6 23.247 6 24.4652V28.9463C6 29.0943 6.12022 29.2145 6.26826 29.2145H10.5459C11.8762 29.2145 12.9548 28.136 12.9548 26.8056Z" fill="url(#paint1_linear_514_3584)"/>
<path d="M29.3115 9.54587V5.47174C29.3115 5.21124 29.1002 5 28.8397 5H24.5621C23.3442 5 22.3567 5.98728 22.3567 7.20541V11.6865C22.3567 11.8345 22.4767 11.9548 22.625 11.9548H26.9026C28.2329 11.9545 29.3115 10.8762 29.3115 9.54587Z" fill="url(#paint2_linear_514_3584)"/>
<path d="M62.4886 4.72727V28H58.2386L48.1136 13.3523H47.9432V28H43.0227V4.72727H47.3409L57.3864 19.3636H57.5909V4.72727H62.4886ZM70.5653 28H65.2926L73.3267 4.72727H79.6676L87.6903 28H82.4176L76.5881 10.0455H76.4062L70.5653 28ZM70.2358 18.8523H82.6903V22.6932H70.2358V18.8523ZM109.957 4.72727V28H105.707L95.5824 13.3523H95.4119V28H90.4915V4.72727H94.8097L104.855 19.3636H105.06V4.72727H109.957ZM122.273 28H114.023V4.72727H122.341C124.682 4.72727 126.697 5.19318 128.386 6.125C130.076 7.04924 131.375 8.37879 132.284 10.1136C133.201 11.8485 133.659 13.9242 133.659 16.3409C133.659 18.7652 133.201 20.8485 132.284 22.5909C131.375 24.3333 130.068 25.6705 128.364 26.6023C126.667 27.5341 124.636 28 122.273 28ZM118.943 23.7841H122.068C123.523 23.7841 124.746 23.5265 125.739 23.0114C126.739 22.4886 127.489 21.6818 127.989 20.5909C128.496 19.4924 128.75 18.0758 128.75 16.3409C128.75 14.6212 128.496 13.2159 127.989 12.125C127.489 11.0341 126.742 10.2311 125.75 9.71591C124.758 9.20076 123.534 8.94318 122.08 8.94318H118.943V23.7841ZM140.003 28H134.73L142.764 4.72727H149.105L157.128 28H151.855L146.026 10.0455H145.844L140.003 28ZM139.673 18.8523H152.128V22.6932H139.673V18.8523Z" fill="white"/>
</g>
<defs>
<linearGradient id="paint0_linear_514_3584" x1="7.7276" y1="14.3083" x2="21.0617" y2="11.7878" gradientUnits="userSpaceOnUse">
<stop stop-color="#EC1B69"/>
<stop offset="1" stop-color="#F05B57"/>
</linearGradient>
<linearGradient id="paint1_linear_514_3584" x1="6.67264" y1="22.7916" x2="10.8876" y2="27.3109" gradientUnits="userSpaceOnUse">
<stop stop-color="#EC1B69"/>
<stop offset="1" stop-color="#F05B57"/>
</linearGradient>
<linearGradient id="paint2_linear_514_3584" x1="23.0293" y1="5.53171" x2="27.2443" y2="10.051" gradientUnits="userSpaceOnUse">
<stop stop-color="#EC1B69"/>
<stop offset="1" stop-color="#F05B57"/>
</linearGradient>
<clipPath id="clip0_514_3584">
<rect width="158" height="35" fill="white"/>
</clipPath>
</defs>
</svg>
