<svg width="120" height="63" viewBox="0 0 120 63" fill="none" xmlns="http://www.w3.org/2000/svg">
<g clip-path="url(#clip0_588_5297)">
<path d="M60 62.8133C93.1371 62.8133 120 48.7521 120 31.4067C120 14.0612 93.1371 0 60 0C26.8629 0 0 14.0612 0 31.4067C0 48.7521 26.8629 62.8133 60 62.8133Z" fill="url(#paint0_radial_588_5297)"/>
<path d="M60 60.4802C91.8427 60.4802 117.656 47.4636 117.656 31.4068C117.656 15.3501 91.8427 2.3335 60 2.3335C28.1573 2.3335 2.34375 15.3501 2.34375 31.4068C2.34375 47.4636 28.1573 60.4802 60 60.4802Z" fill="#6181B6"/>
<path d="M71.6719 40.8334L74.5313 26.18C75.1876 22.8667 74.6251 20.3934 72.9376 18.8534C71.2969 17.36 68.4844 16.6134 64.3594 16.6134H59.3907L60.7969 9.33338C60.8438 9.05338 60.7969 8.77338 60.6094 8.54005C60.4219 8.30671 60.1876 8.21338 59.9063 8.21338H53.0626C52.5938 8.21338 52.2188 8.54005 52.1251 8.96005L49.0782 24.5C48.7969 22.7267 48.1407 21.2334 47.0157 20.02C45.0001 17.7334 41.8594 16.5667 37.5938 16.5667H24.4219C23.9532 16.5667 23.5782 16.8934 23.4844 17.3134L17.3438 48.86C17.2969 49.14 17.3438 49.42 17.5313 49.6534C17.7188 49.8867 17.9532 49.98 18.2344 49.98H25.1251C25.5938 49.98 25.9688 49.6534 26.0626 49.2334L27.5626 41.6267H32.6719C35.3438 41.6267 37.6407 41.3467 39.3751 40.7867C41.2032 40.18 42.8438 39.2 44.2969 37.8467C45.4688 36.7734 46.4532 35.56 47.2032 34.2534L45.9844 40.5534C45.9376 40.8334 45.9844 41.1134 46.1719 41.3467C46.3594 41.58 46.5938 41.6734 46.8751 41.6734H53.7188C54.1876 41.6734 54.5626 41.3467 54.6563 40.9267L58.0313 23.66H62.7188C64.7344 23.66 65.2969 24.0334 65.4844 24.22C65.6251 24.36 65.9063 24.92 65.5782 26.6467L62.8594 40.6C62.8126 40.88 62.8594 41.16 63.0469 41.3934C63.2344 41.6267 63.4688 41.72 63.7501 41.72H70.7813C71.2032 41.58 71.5782 41.2534 71.6719 40.8334ZM39.9844 28.7C39.5626 30.8934 38.7657 32.48 37.5938 33.3667C36.4219 34.2534 34.5001 34.72 31.9688 34.72H28.9219L31.1251 23.4267H35.0626C37.9688 23.4267 39.1407 24.0334 39.6094 24.5467C40.2188 25.2934 40.3594 26.74 39.9844 28.7ZM100.922 20.02C98.9063 17.7334 95.7657 16.5667 91.5001 16.5667H78.2344C77.7657 16.5667 77.3907 16.8934 77.2969 17.3134L71.1563 48.8134C71.1094 49.0934 71.1563 49.3734 71.3438 49.6067C71.5313 49.84 71.7657 49.9334 72.0469 49.9334H78.9376C79.4063 49.9334 79.7813 49.6067 79.8751 49.1867L81.3751 41.58H86.4844C89.1563 41.58 91.4532 41.3 93.1876 40.74C95.0157 40.1334 96.6563 39.1534 98.1094 37.8C99.3282 36.68 100.359 35.42 101.109 34.0667C101.859 32.7134 102.422 31.22 102.75 29.5867C103.547 25.5267 102.938 22.3534 100.922 20.02ZM93.7501 28.7C93.3282 30.8934 92.5313 32.48 91.3594 33.3667C90.1876 34.2534 88.2657 34.72 85.7344 34.72H82.6876L84.8907 23.4267H88.8282C91.7344 23.4267 92.9063 24.0334 93.3751 24.5467C94.0313 25.2934 94.1719 26.74 93.7501 28.7Z" fill="white"/>
<path d="M35.0625 22.4932C37.6875 22.4932 39.4219 22.9598 40.3125 23.9398C41.2031 24.9198 41.3906 26.5532 40.9219 28.8865C40.4531 31.3132 39.5156 33.0865 38.1562 34.1131C36.7969 35.1398 34.7344 35.6532 31.9687 35.6532H27.7969L30.375 22.4932H35.0625ZM18.2812 48.9998H25.1719L26.8125 40.6465H32.7188C35.3438 40.6465 37.4531 40.3665 39.1406 39.8065C40.8281 39.2465 42.3281 38.3598 43.7344 37.0532C44.9062 35.9798 45.8438 34.8132 46.5469 33.5532C47.25 32.2932 47.7656 30.8932 48.0469 29.3532C48.7969 25.6198 48.2344 22.7265 46.4062 20.6265C44.5781 18.5265 41.6719 17.4998 37.6875 17.4998H24.4219L18.2812 48.9998ZM53.1094 9.14648H59.9531L58.3125 17.4998H64.4062C68.25 17.4998 70.875 18.1531 72.3281 19.5065C73.7812 20.8598 74.2031 23.0065 73.6406 25.9931L70.7812 40.6465H63.8437L66.5625 26.6931C66.8906 25.1065 66.75 24.0331 66.2344 23.4731C65.7188 22.9131 64.5469 22.5865 62.8125 22.5865H57.3281L53.8125 40.6465H46.9687L53.1094 9.14648ZM88.8281 22.4932C91.4531 22.4932 93.1875 22.9598 94.0781 23.9398C94.9687 24.9198 95.1562 26.5532 94.6875 28.8865C94.2187 31.3132 93.2812 33.0865 91.9219 34.1131C90.5625 35.1398 88.5 35.6532 85.7344 35.6532H81.5625L84.1406 22.4932H88.8281ZM72.0469 48.9998H78.9375L80.5781 40.6465H86.4844C89.1094 40.6465 91.2187 40.3665 92.9062 39.8065C94.5937 39.2465 96.0937 38.3598 97.5 37.0532C98.6719 35.9798 99.6094 34.8132 100.312 33.5532C101.016 32.2932 101.531 30.8932 101.812 29.3532C102.562 25.6198 102 22.7265 100.172 20.6265C98.3437 18.5265 95.4375 17.4998 91.4531 17.4998H78.1875L72.0469 48.9998Z" fill="#000004"/>
</g>
<defs>
<radialGradient id="paint0_radial_588_5297" cx="0" cy="0" r="1" gradientUnits="userSpaceOnUse" gradientTransform="translate(36.0242 11.0448) scale(78.7947 78.4445)">
<stop stop-color="white"/>
<stop offset="0.5" stop-color="#4C6B97"/>
<stop offset="1" stop-color="#231F20"/>
</radialGradient>
<clipPath id="clip0_588_5297">
<rect width="120" height="63" fill="white"/>
</clipPath>
</defs>
</svg>
